Normalized EMG Linear Envelopes
nRows=253
nColumns=4

endheader
time	 med_gas_r	  soleus_r	 tib_ant_r	
2.95613	  0.020821	  0.030256	  0.015326	
2.99174	  0.020628	  0.029725	  0.015119	
3.02736	  0.020562	  0.029157	  0.014999	
3.06298	  0.020605	  0.028699	  0.015001	
3.09859	  0.020701	  0.028360	  0.015110	
3.13421	  0.020842	  0.028055	  0.015328	
3.16982	  0.021058	  0.027765	  0.015637	
3.20544	  0.021393	  0.027540	  0.015991	
3.24106	  0.021803	  0.027360	  0.016306	
3.27667	  0.022219	  0.027225	  0.016501	
3.31229	  0.022608	  0.027177	  0.016587	
3.3479	  0.022883	  0.027210	  0.016627	
3.38352	  0.023011	  0.027347	  0.016655	
3.41914	  0.023035	  0.027613	  0.016677	
3.45475	  0.022984	  0.027962	  0.016637	
3.49037	  0.022909	  0.028334	  0.016505	
3.52598	  0.022852	  0.028748	  0.016339	
3.5616	  0.022833	  0.029224	  0.016187	
3.59722	  0.022924	  0.029691	  0.016063	
3.63283	  0.023134	  0.030005	  0.015955	
3.66845	  0.023368	  0.030140	  0.015890	
3.70406	  0.023500	  0.030107	  0.015871	
3.73968	  0.023450	  0.029929	  0.015895	
3.7753	  0.023264	  0.029653	  0.015986	
3.81091	  0.023023	  0.029370	  0.016142	
3.84653	  0.022767	  0.029129	  0.016374	
3.88214	  0.022488	  0.028930	  0.016729	
3.91776	  0.022153	  0.028800	  0.017232	
3.95338	  0.021838	  0.028808	  0.017902	
3.98899	  0.021616	  0.028944	  0.018676	
4.02461	  0.021497	  0.029197	  0.019400	
4.06022	  0.021498	  0.029556	  0.019851	
4.09584	  0.021631	  0.029959	  0.019837	
4.13146	  0.021889	  0.030316	  0.019155	
4.16707	  0.022207	  0.030566	  0.017709	
4.20269	  0.022439	  0.030699	  0.015889	
4.2383	  0.022448	  0.030730	  0.014314	
4.27392	  0.022145	  0.030681	  0.013690	
4.30954	  0.021473	  0.030581	  0.014767	
4.34515	  0.020465	  0.030499	  0.018428	
4.38077	  0.019326	  0.030443	  0.025761	
4.41638	  0.018351	  0.030456	  0.037861	
4.452	  0.017925	  0.030837	  0.055452	
4.48762	  0.018627	  0.032001	  0.079200	
4.52323	  0.021103	  0.034230	  0.109782	
4.55885	  0.025976	  0.037584	  0.147748	
4.59446	  0.033886	  0.041850	  0.192683	
4.63008	  0.045407	  0.046756	  0.242728	
4.6657	  0.061008	  0.051931	  0.293146	
4.70131	  0.080496	  0.056750	  0.334322	
4.73693	  0.102383	  0.060756	  0.358458	
4.77254	  0.123500	  0.064079	  0.365809	
4.80816	  0.138159	  0.066600	  0.362397	
4.84378	  0.139384	  0.067926	  0.353472	
4.87939	  0.131143	  0.068424	  0.341758	
4.91501	  0.120946	  0.068491	  0.328563	
4.95062	  0.113097	  0.068539	  0.316570	
4.98624	  0.108851	  0.068998	  0.310642	
5.02186	  0.106420	  0.069682	  0.313278	
5.05747	  0.102717	  0.070525	  0.323727	
5.09309	  0.096152	  0.071768	  0.340614	
5.1287	  0.089327	  0.073571	  0.361264	
5.16432	  0.083844	  0.075118	  0.382473	
5.19994	  0.079748	  0.075651	  0.401902	
5.23555	  0.076424	  0.075538	  0.420486	
5.27117	  0.073862	  0.074895	  0.437146	
5.30678	  0.072824	  0.073771	  0.448187	
5.3424	  0.073470	  0.071887	  0.450102	
5.37802	  0.074926	  0.069230	  0.442543	
5.41363	  0.075408	  0.066434	  0.428688	
5.44925	  0.073802	  0.064168	  0.413915	
5.48486	  0.071686	  0.063045	  0.400435	
5.52048	  0.071084	  0.063411	  0.388804	
5.5561	  0.072742	  0.065190	  0.380915	
5.59171	  0.076037	  0.068067	  0.378568	
5.62733	  0.079200	  0.071394	  0.382856	
5.66294	  0.080608	  0.074474	  0.391773	
5.69856	  0.080421	  0.076338	  0.397956	
5.73418	  0.079928	  0.076948	  0.399599	
5.76979	  0.079873	  0.076694	  0.397948	
5.80541	  0.080479	  0.075658	  0.390197	
5.84102	  0.081968	  0.074427	  0.377387	
5.87664	  0.084604	  0.074107	  0.361183	
5.91226	  0.089444	  0.075473	  0.341186	
5.94787	  0.097282	  0.078696	  0.318073	
5.98349	  0.107833	  0.084224	  0.295188	
6.0191	  0.119627	  0.092249	  0.276857	
6.05472	  0.130311	  0.102075	  0.267598	
6.09034	  0.138256	  0.111628	  0.269089	
6.12595	  0.140380	  0.117481	  0.283461	
6.16157	  0.133911	  0.117457	  0.310939	
6.19718	  0.122635	  0.114055	  0.347011	
6.2328	  0.111676	  0.109712	  0.385604	
6.26842	  0.104191	  0.105721	  0.420280	
6.30403	  0.101626	  0.103573	  0.448689	
6.33965	  0.103635	  0.103486	  0.468532	
6.37526	  0.108505	  0.104594	  0.479775	
6.41088	  0.113795	  0.105728	  0.483916	
6.4465	  0.117558	  0.105493	  0.482512	
6.48211	  0.117788	  0.103501	  0.478464	
6.51773	  0.114147	  0.099647	  0.472243	
6.55334	  0.109257	  0.094700	  0.463481	
6.58896	  0.104346	  0.088864	  0.454749	
6.62458	  0.099906	  0.082544	  0.449084	
6.66019	  0.097105	  0.077218	  0.449169	
6.69581	  0.096804	  0.074051	  0.456102	
6.73142	  0.098923	  0.073336	  0.468692	
6.76704	  0.102957	  0.074576	  0.484833	
6.80266	  0.108331	  0.077638	  0.502006	
6.83827	  0.114430	  0.082498	  0.516178	
6.87389	  0.119756	  0.088455	  0.524184	
6.9095	  0.124581	  0.094275	  0.525008	
6.94512	  0.130040	  0.098294	  0.517869	
6.98074	  0.135402	  0.098741	  0.508031	
7.01635	  0.139252	  0.096009	  0.496934	
7.05197	  0.141665	  0.092450	  0.484120	
7.08758	  0.144043	  0.089628	  0.474958	
7.1232	  0.146642	  0.088105	  0.473007	
7.15882	  0.148404	  0.088158	  0.479062	
7.19443	  0.149524	  0.089450	  0.490278	
7.23005	  0.149944	  0.091502	  0.505404	
7.26566	  0.148540	  0.093985	  0.524540	
7.30128	  0.143642	  0.097200	  0.547188	
7.3369	  0.135699	  0.101523	  0.575529	
7.37251	  0.128089	  0.106214	  0.607336	
7.40813	  0.122815	  0.110266	  0.633205	
7.44374	  0.120081	  0.113152	  0.641388	
7.47936	  0.118959	  0.114502	  0.631650	
7.51498	  0.118861	  0.113702	  0.609514	
7.55059	  0.119823	  0.111107	  0.582854	
7.58621	  0.121381	  0.107472	  0.558384	
7.62182	  0.124174	  0.102896	  0.539637	
7.65744	  0.127866	  0.098455	  0.529244	
7.69306	  0.131746	  0.095360	  0.528661	
7.72867	  0.135219	  0.094233	  0.537264	
7.76429	  0.136546	  0.095076	  0.552824	
7.7999	  0.135899	  0.097464	  0.574797	
7.83552	  0.134910	  0.100463	  0.603987	
7.87114	  0.134743	  0.103228	  0.641508	
7.90675	  0.135712	  0.105110	  0.682005	
7.94237	  0.137354	  0.106053	  0.717322	
7.97798	  0.137902	  0.105836	  0.740320	
8.0136	  0.137005	  0.104595	  0.749715	
8.04922	  0.136029	  0.102705	  0.744213	
8.08483	  0.135902	  0.100750	  0.721899	
8.12045	  0.135828	  0.099396	  0.689788	
8.15606	  0.134610	  0.098616	  0.656913	
8.19168	  0.132147	  0.097838	  0.625757	
8.2273	  0.130209	  0.096500	  0.596765	
8.26291	  0.130008	  0.095363	  0.573386	
8.29853	  0.130746	  0.095314	  0.554599	
8.33414	  0.131013	  0.097201	  0.542173	
8.36976	  0.128726	  0.101663	  0.540285	
8.40538	  0.124225	  0.108512	  0.552905	
8.44099	  0.119828	  0.116879	  0.582374	
8.47661	  0.116725	  0.125162	  0.623084	
8.51222	  0.115749	  0.131306	  0.662887	
8.54784	  0.117049	  0.135102	  0.696483	
8.58346	  0.120180	  0.137204	  0.728679	
8.61907	  0.123574	  0.138021	  0.765194	
8.65469	  0.126000	  0.137684	  0.804956	
8.6903	  0.127943	  0.136517	  0.843564	
8.72592	  0.130469	  0.134764	  0.871852	
8.76154	  0.133086	  0.131666	  0.875873	
8.79715	  0.133824	  0.127095	  0.855302	
8.83277	  0.130561	  0.122354	  0.823488	
8.86838	  0.124474	  0.118611	  0.787162	
8.904	  0.119087	  0.116025	  0.752864	
8.93962	  0.116199	  0.114311	  0.727444	
8.97523	  0.115804	  0.113289	  0.715808	
9.01085	  0.116487	  0.112363	  0.718155	
9.04646	  0.116737	  0.111272	  0.731853	
9.08208	  0.115567	  0.110640	  0.747368	
9.1177	  0.112841	  0.110580	  0.755194	
9.15331	  0.110182	  0.111374	  0.753787	
9.18893	  0.108730	  0.113491	  0.746264	
9.22454	  0.108219	  0.116772	  0.736769	
9.26016	  0.108637	  0.120458	  0.729999	
9.29578	  0.111133	  0.123536	  0.723990	
9.33139	  0.115282	  0.125809	  0.718202	
9.36701	  0.119160	  0.126886	  0.712342	
9.40262	  0.120233	  0.126432	  0.711588	
9.43824	  0.118835	  0.125040	  0.721888	
9.47386	  0.117309	  0.122744	  0.743777	
9.50947	  0.117000	  0.120264	  0.776243	
9.54509	  0.118531	  0.118876	  0.815570	
9.5807	  0.121693	  0.119245	  0.855723	
9.61632	  0.125002	  0.121384	  0.891626	
9.65194	  0.126555	  0.124178	  0.920279	
9.68755	  0.126876	  0.126554	  0.940098	
9.72317	  0.127985	  0.128138	  0.949827	
9.75878	  0.130235	  0.127715	  0.941862	
9.7944	  0.132543	  0.125614	  0.919928	
9.83002	  0.133318	  0.122910	  0.895460	
9.86563	  0.130709	  0.120513	  0.873569	
9.90125	  0.124711	  0.119052	  0.853423	
9.93686	  0.117178	  0.118580	  0.838870	
9.97248	  0.110111	  0.117842	  0.834335	
10.0081	  0.104951	  0.116327	  0.841796	
10.0437	  0.102280	  0.115602	  0.854038	
10.0793	  0.101890	  0.116947	  0.862336	
10.1149	  0.102547	  0.120688	  0.864116	
10.1506	  0.103100	  0.126062	  0.861452	
10.1862	  0.104879	  0.131702	  0.858618	
10.2218	  0.108099	  0.137316	  0.857276	
10.2574	  0.111702	  0.142441	  0.853434	
10.293	  0.114167	  0.147479	  0.851180	
10.3286	  0.114277	  0.151453	  0.855815	
10.3643	  0.112773	  0.152314	  0.864777	
10.3999	  0.110501	  0.149377	  0.868017	
10.4355	  0.107908	  0.143775	  0.857097	
10.4711	  0.104829	  0.137235	  0.832452	
10.5067	  0.100968	  0.131507	  0.800763	
10.5423	  0.096707	  0.127993	  0.766117	
10.578	  0.093168	  0.127371	  0.732444	
10.6136	  0.091107	  0.129631	  0.703999	
10.6492	  0.090494	  0.134611	  0.687519	
10.6848	  0.090651	  0.141559	  0.686698	
10.7204	  0.090882	  0.148645	  0.702868	
10.756	  0.091394	  0.154227	  0.734914	
10.7916	  0.092903	  0.156974	  0.778298	
10.8273	  0.095143	  0.155814	  0.823514	
10.8629	  0.097577	  0.150376	  0.859494	
10.8985	  0.099593	  0.141593	  0.881055	
10.9341	  0.100305	  0.131270	  0.885341	
10.9697	  0.099098	  0.121481	  0.864683	
11.0053	  0.096622	  0.114267	  0.822818	
11.041	  0.094143	  0.110850	  0.776158	
11.0766	  0.093123	  0.110758	  0.738336	
11.1122	  0.094765	  0.112726	  0.712886	
11.1478	  0.100663	  0.115942	  0.697849	
11.1834	  0.112010	  0.119649	  0.686572	
11.219	  0.128203	  0.122695	  0.674589	
11.2547	  0.146900	  0.123021	  0.651438	
11.2903	  0.166722	  0.117340	  0.597457	
11.3259	  0.185737	  0.106168	  0.506332	
11.3615	  0.199834	  0.092656	  0.395588	
11.3971	  0.204284	  0.078940	  0.286089	
11.4327	  0.198760	  0.066616	  0.192310	
11.4684	  0.187421	  0.056805	  0.120934	
11.504	  0.173290	  0.049569	  0.072466	
11.5396	  0.158149	  0.044714	  0.043525	
11.5752	  0.143328	  0.042159	  0.028583	
11.6108	  0.129943	  0.041488	  0.022504	
11.6464	  0.119741	  0.042069	  0.021583	
11.682	  0.113882	  0.043223	  0.022581	
11.7177	  0.112161	  0.044309	  0.023170	
11.7533	  0.112626	  0.045013	  0.022867	
11.7889	  0.113173	  0.045162	  0.021935	
11.8245	  0.112915	  0.044559	  0.020712	
11.8601	  0.112415	  0.043247	  0.019459	
11.8957	  0.112855	  0.041482	  0.018358	
11.9314	  0.115196	  0.039608	  0.017488	
